<?xml version="1.0" encoding="utf-8"?>
<!-- Generator: Adobe Illustrator 27.5.0, SVG Export Plug-In . SVG Version: 6.00 Build 0)  -->
<svg version="1.1" id="Layer_1" xmlns="http://www.w3.org/2000/svg" xmlns:xlink="http://www.w3.org/1999/xlink" x="0px" y="0px"
	 viewBox="0 0 640 480" style="enable-background:new 0 0 640 480;" xml:space="preserve">
<style type="text/css">
	.st0{fill:#292929;}
	.st1{fill:none;}
</style>
<g>
	<path class="st0" d="M138.2,212.8l17.5,37.2h-34L138.2,212.8z M35.3,198.1H20v83.8h61.2v-13.4H35.3V198.1z M494,211.5v70.4h15.3
		v-70.4h30.2v-13.4h-74.9v13.4H494z M330.5,268.7c-17.1,0-30-12.5-30-28.7s12.9-28.7,30-28.7s30,12.5,30,28.7
		S347.6,268.7,330.5,268.7z M238.7,211.3c12.9,0,20.2,6.8,24.3,10.4l10.7-10.2c-3.5-3.8-13.8-15.1-35.3-15.1
		c-24.8,0-46.7,16.2-46.7,43.6s21.7,43.6,46.5,43.6c19.1,0,32-10,36.2-13.6l-8.5-11.7c-6.8,5.5-17.5,10.4-27.4,10.4
		c-17.1,0-30-12.5-30-28.7S221.4,211.3,238.7,211.3L238.7,211.3z M389,273.6c3.5,2.8,14,10,32.4,10c18.6,0,33.7-9.8,33.7-25.1
		c0-31.9-47.6-21.7-47.6-39.1c0-4.9,4.2-8.9,15.1-8.9c13.1,0,21.7,5.7,25,8.3l6.4-12.3c-3.9-3.6-16-10-31.3-10
		c-23,0-32.4,12.5-32.4,24.9c0,28.9,47.6,20.6,47.6,37.9c0,7.2-7.5,10.4-16,10.4c-12.9,0-23.2-5.5-27.6-8.7L389,273.6L389,273.6z
		 M618.7,198.1h-65.5v83.8H620v-13.4h-51.5v-21.9h43.8v-13.4h-43.8v-21.7h50.2V198.1L618.7,198.1z M170.8,281.9h18.1l-41.5-83.8
		h-17.3l-38.3,83.8h16L116,263h45.8L170.8,281.9L170.8,281.9z M330.5,283.6c24.8,0,46.7-16.2,46.7-43.6s-21.9-43.6-46.7-43.6
		c-24.8,0-46.7,16.2-46.7,43.6S305.8,283.6,330.5,283.6z"/>
</g>
<rect x="5.8" y="183.5" class="st1" width="628.4" height="112.9"/>
</svg>
